<?xml version="1.0" standalone="no"?><!DOCTYPE svg PUBLIC "-//W3C//DTD SVG 1.1//EN" "http://www.w3.org/Graphics/SVG/1.1/DTD/svg11.dtd"><svg t="1754913486989" class="icon" viewBox="0 0 1024 1024" version="1.1" xmlns="http://www.w3.org/2000/svg" p-id="4941" xmlns:xlink="http://www.w3.org/1999/xlink" width="200" height="200"><path d="M310.857143 0h25.652245c22.308571 5.694694 43.31102 15.621224 62.484898 28.212245-24.973061 26.174694-54.752653 47.542857-76.852245 76.434286-4.179592-22.308571-7.053061-44.826122-9.142857-67.395919-0.992653-11.598367-1.880816-23.196735-2.194286-34.795102L310.857143 0zM681.377959 0h17.240817l3.082448 1.671837c-0.365714 2.403265-1.149388 7.262041-1.567346 9.717551-2.089796 11.911837-4.388571 23.823673-6.844082 35.683265-32.078367 4.127347-64.626939 2.873469-96.391837-3.291429 25.077551-19.644082 53.289796-36.04898 84.48-43.781224zM367.804082 242.99102c41.430204-31.137959 75.232653-71.157551 117.498775-101.198367 0.679184 2.612245 2.037551 7.836735 2.716735 10.501225-16.091429 19.487347-32.339592 38.922449-47.647347 59.036734-16.875102 20.009796-32.182857 41.691429-41.430204 66.351021l-15.621225-0.940409c-3.866122-8.306939-7.732245-16.561633-11.546122-24.868571-0.992653-2.246531-2.977959-6.635102-3.970612-8.881633zM501.342041 501.133061c2.298776 1.671837 6.844082 5.067755 9.142857 6.739592-2.298776-1.671837-6.844082-5.067755-9.142857-6.739592zM748.826122 516.284082c63.425306 11.075918 127.582041 21.315918 187.977143 44.512653-46.132245 3.500408-92.36898-0.313469-138.501224 3.186938 0.940408 18.912653 2.925714 37.773061 4.440816 56.685715-45.97551 18.390204-93.622857 32.548571-141.479184 45.191836 7.88898-12.173061 15.046531-24.816327 22.047347-37.511836 21.995102-37.250612 44.251429-74.396735 65.515102-112.065306zM71.209796 565.498776c57.887347-23.823673 119.954286-34.063673 181.133061-45.296327 17.397551 9.717551 24.293878 28.473469 29.779592 46.445714-70.112653 7.88898-140.643265-0.156735-210.912653-1.149387zM297.430204 783.046531c-23.562449-36.675918-74.501224-39.340408-97.959184-75.337143 48.74449 9.665306 98.742857 10.187755 147.330613 20.845714-15.36 19.173878-32.862041 36.362449-49.371429 54.491429zM756.244898 829.857959c39.340408-8.150204 77.322449-21.368163 114.259592-36.937143 6.008163 35.422041 8.359184 73.560816-7.418776 106.945306-38.452245-18.703673-75.702857-40.333061-106.840816-70.008163zM137.195102 852.009796c15.203265 8.672653 29.518367 18.703673 43.363265 29.413877-8.097959 4.075102-16.248163 8.097959-24.346122 12.120817 6.687347 7.262041 13.322449 14.628571 20.37551 21.577143-17.084082-12.329796-42.736327-21.942857-43.258775-46.654694 0.940408-4.127347 2.925714-12.329796 3.866122-16.457143z" fill="#575757" p-id="4942"></path><path d="M227.787755 57.835102C255.007347 38.661224 282.906122 20.58449 310.804898 2.45551c0.313469 11.598367 1.201633 23.196735 2.194286 34.795102-26.958367 11.911837-55.484082 20.793469-85.211429 20.58449zM700.133878 11.389388c0.417959-2.45551 1.201633-7.314286 1.567346-9.717551 50.938776 33.018776 100.832653 67.657143 151.196735 101.511836 29.413878 19.017143 22.099592 59.193469 21.315919 89.077551-56.058776-41.221224-120.42449-69.433469-179.879184-105.325714 3.239184-25.077551 3.448163-50.416327 5.799184-75.546122zM526.053878 108.617143c54.804898 3.343673 109.714286 1.619592 164.571428 1.724081-7.262041 38.556735-20.218776 75.755102-33.906939 112.483266-71.314286-15.203265-145.397551 5.433469-216.346122-11.493878 15.307755-20.114286 31.555918-39.549388 47.647347-59.036734 7.053061-8.359184 14.262857-16.561633 21.368163-24.816327 5.485714-6.373878 11.023673-12.643265 16.666123-18.860408zM165.825306 299.363265c70.112653-9.613061 135.209796-43.833469 205.949388-47.490612 3.813878 8.306939 7.68 16.561633 11.546122 24.868571l15.621225 0.940409c3.552653 0.10449 10.605714 0.365714 14.158367 0.470204-82.599184 4.702041-166.086531 8.672653-246.595918 29.466122-0.156735-2.089796-0.522449-6.164898-0.679184-8.254694zM571.611429 277.733878c20.27102 0.156735 40.542041 1.462857 60.708571 3.395918-20.741224 44.878367-41.221224 90.435918-70.635102 130.45551-3.395918-44.982857 10.187755-88.920816 9.926531-133.851428zM0 394.657959c15.36-24.711837 40.280816-41.16898 66.142041-53.185306-5.537959 79.412245-27.585306 157.518367-25.338776 237.400816-13.844898 9.508571-27.115102 19.853061-40.803265 29.675102V394.657959zM966.530612 348.630204c21.315918 13.374694 49.005714 29.831837 48.378776 58.566531 0.470204 62.850612 0 125.805714 0.208979 188.656326 2.194286 23.196735-17.188571 39.235918-34.115918 51.252245-40.698776 27.376327-88.502857 41.430204-135.732245 52.715102-13.217959-31.137959-26.592653-62.693878-30.093061-96.705306 58.514286-8.463673 117.96898 6.478367 176.117551-6.478367-11.075918-10.34449-22.569796-20.37551-35.160816-28.891429 2.925714-73.038367 8.359184-145.972245 10.396734-219.115102zM486.60898 502.073469c3.709388-0.261224 11.075918-0.731429 14.733061-0.940408 2.298776 1.671837 6.844082 5.067755 9.142857 6.739592 3.448163 12.382041 6.478367 27.167347 19.435102 33.123265 51.617959 28.16 104.385306 54.700408 153.39102 87.35347-7.000816 12.69551-14.158367 25.338776-22.047347 37.511836-8.672653 13.00898-16.509388 26.592653-22.72653 40.907756-45.714286-33.906939-60.604082-91.062857-95.294694-133.53796-75.128163 18.808163-153.025306 23.719184-227.787755 44.042449-12.8-18.02449-22.987755-37.773061-30.61551-58.46204 68.597551-19.748571 140.8-22.778776 209.81551-41.16898-2.66449-5.22449-5.32898-10.396735-8.045714-15.56898zM23.719184 640.522449c19.278367-6.530612 39.392653-10.919184 59.872653-10.396735 80.404898 1.306122 160.809796-0.20898 241.266939 0.940408 15.25551 22.360816 29.361633 45.453061 41.952653 69.43347-6.478367 9.508571-12.8 19.121633-20.009796 28.05551-48.587755-10.657959-98.586122-11.180408-147.330613-20.845714-12.747755-2.873469-25.443265-6.112653-38.19102-9.090612-48.378776-11.859592-97.48898-27.428571-137.560816-58.096327zM374.230204 711.627755c44.042449 58.723265 83.382857 121.364898 134.373878 174.602449-7.366531 8.097959-14.733061 16.143673-22.360817 24.032653-34.742857-33.906939-64.052245-72.777143-96.862041-108.564898-13.688163-17.031837-31.660408-32.339592-38.08653-53.916735 4.754286-13.635918 14.524082-24.659592 22.93551-36.153469zM630.909388 994.063673c39.497143-3.604898 78.837551-8.672653 117.812245-16.039183-19.435102 12.486531-36.728163 29.466122-59.141225 36.414694-21.106939-0.626939-40.698776-10.03102-58.67102-20.375511z" fill="#7C7C7C" p-id="4943"></path><path d="M700.133878 11.389388c-2.35102 25.129796-2.56 50.468571-5.799184 75.546122-1.097143 7.78449-2.298776 15.621224-3.709388 23.405714-54.857143-0.10449-109.766531 1.619592-164.571428-1.724081 21.733878-23.562449 45.505306-45.244082 70.844081-64.835919 31.764898 6.164898 64.313469 7.418776 96.391837 3.291429 2.45551-11.859592 4.754286-23.771429 6.844082-35.683265zM322.142041 104.646531c22.099592-28.891429 51.879184-50.259592 76.852245-76.434286 41.743673 27.219592 75.964082 63.686531 110.393469 99.265306-7.105306 8.254694-14.315102 16.457143-21.368163 24.816327-0.679184-2.66449-2.037551-7.88898-2.716735-10.501225-42.266122 30.040816-76.068571 70.060408-117.498775 101.198367-19.487347-44.512653-36.04898-90.644898-45.662041-138.344489zM398.942041 277.681633c9.247347-24.659592 24.555102-46.341224 41.430204-66.351021 70.948571 16.927347 145.031837-3.709388 216.346122 11.493878-7.523265 19.696327-15.621224 39.131429-24.398367 58.305306-20.166531-1.933061-40.437551-3.239184-60.708571-3.395918-52.819592-0.156735-105.691429-1.985306-158.511021 0.417959-3.552653-0.10449-10.605714-0.365714-14.158367-0.470204zM252.342857 520.202449c77.949388-7.993469 155.846531-17.449796 234.266123-18.12898 2.716735 5.172245 5.381224 10.34449 8.045714 15.56898-69.01551 18.390204-141.217959 21.420408-209.81551 41.16898 7.627755 20.68898 17.81551 40.437551 30.61551 58.46204l9.404082 13.792653c-80.457143-1.149388-160.862041 0.365714-241.266939-0.940408-20.48-0.522449-40.594286 3.866122-59.872653 10.396735-8.777143-7.68-16.561633-16.404898-23.719184-25.547755v-6.426123c13.688163-9.822041 26.958367-20.166531 40.803265-29.675102 9.822041-5.12 19.957551-9.717551 30.406531-13.374693 70.269388 0.992653 140.8 9.038367 210.912653 1.149387-5.485714-17.972245-12.382041-36.728163-29.779592-46.445714zM936.803265 560.796735c6.530612 2.089796 13.00898 4.336327 19.330613 6.948571 12.59102 8.515918 24.084898 18.546939 35.160816 28.891429-58.148571 12.956735-117.603265-1.985306-176.117551 6.478367 3.500408 34.011429 16.875102 65.567347 30.093061 96.705306 10.814694 30.302041 19.069388 61.54449 25.234286 93.100408-36.937143 15.56898-74.919184 28.786939-114.259592 36.937143-44.826122-35.63102-75.128163-85.368163-117.707755-123.088979 6.217143-14.315102 14.053878-27.898776 22.72653-40.907756 47.856327-12.643265 95.503673-26.801633 141.479184-45.191836-1.515102-18.912653-3.500408-37.773061-4.440816-56.685715 46.132245-3.500408 92.36898 0.313469 138.501224-3.186938zM161.28 698.618776c12.747755 2.977959 25.443265 6.217143 38.19102 9.090612 23.457959 35.996735 74.396735 38.661224 97.959184 75.337143-35.369796 36.519184-71.47102 74.396735-116.871837 98.377142-13.844898-10.710204-28.16-20.741224-43.363265-29.413877-0.940408 4.127347-2.925714 12.329796-3.866122 16.457143-7.418776-57.991837 10.13551-115.356735 27.95102-169.848163z" fill="#686868" p-id="4944"></path><path d="M227.787755 57.835102c29.727347 0.20898 58.253061-8.672653 85.211429-20.58449 2.089796 22.569796 4.963265 45.087347 9.142857 67.395919 9.613061 47.699592 26.174694 93.831837 45.662041 138.344489 0.992653 2.246531 2.977959 6.635102 3.970612 8.881633-70.739592 3.657143-135.836735 37.877551-205.949388 47.490612-14.210612-49.841633-29.361633-100.989388-25.077551-153.39102-0.626939-49.319184 56.32-61.283265 87.04-88.137143z" fill="#999999" p-id="4945"></path><path d="M694.334694 86.93551c59.454694 35.892245 123.820408 64.10449 179.879184 105.325714-4.597551 38.4-15.934694 75.598367-27.533062 112.378776 41.325714 10.44898 82.546939 22.93551 119.849796 43.990204-2.037551 73.142857-7.47102 146.076735-10.396734 219.115102-6.321633-2.612245-12.8-4.858776-19.330613-6.948571-60.395102-23.196735-124.551837-33.436735-187.977143-44.512653-21.263673 37.668571-43.52 74.814694-65.515102 112.065306-49.005714-32.653061-101.773061-59.193469-153.39102-87.35347-12.956735-5.955918-15.986939-20.741224-19.435102-33.123265-2.298776-1.671837-6.844082-5.067755-9.142857-6.739592-3.657143 0.20898-11.023673 0.679184-14.733061 0.940408-78.419592 0.679184-156.316735 10.13551-234.266123 18.12898-61.178776 11.232653-123.245714 21.472653-181.133061 45.296327-10.44898 3.657143-20.58449 8.254694-30.406531 13.374693-2.246531-79.882449 19.800816-157.988571 25.338776-237.400816 32.078367-15.046531 66.089796-25.443265 100.362449-33.854694 80.509388-20.793469 163.996735-24.764082 246.595918-29.466122 52.819592-2.403265 105.691429-0.574694 158.511021-0.417959 0.261224 44.930612-13.322449 88.868571-9.926531 133.851428 29.413878-40.019592 49.893878-85.577143 70.635102-130.45551 8.777143-19.173878 16.875102-38.60898 24.398367-58.305306 13.688163-36.728163 26.644898-73.926531 33.906939-112.483266 1.410612-7.78449 2.612245-15.621224 3.709388-23.405714z" fill="#999999" p-id="4946"></path><path d="M315.454694 617.273469c74.762449-20.323265 152.659592-25.234286 227.787755-44.042449 34.690612 42.475102 49.580408 99.63102 95.294694 133.53796 42.579592 37.720816 72.881633 87.457959 117.707755 123.088979 31.137959 29.675102 68.388571 51.30449 106.840816 70.008163-37.250612 27.271837-76.277551 52.088163-114.364081 78.158368-38.974694 7.366531-78.315102 12.434286-117.812245 16.039183-46.602449-28.630204-85.524898-67.761633-122.305306-107.833469-50.99102-53.237551-90.331429-115.879184-134.373878-174.602449-8.411429 11.493878-18.181224 22.517551-22.93551 36.153469 6.426122 21.577143 24.398367 36.884898 38.08653 53.916735 32.809796 35.787755 62.119184 74.657959 96.862041 108.564898-35.369796 36.153469-72.933878 71.993469-119.118367 93.884082-16.770612 6.844082-37.355102 16.091429-53.96898 4.075102-45.97551-30.302041-90.801633-62.380408-136.568163-93.100408-7.053061-6.948571-13.688163-14.315102-20.37551-21.577143 8.097959-4.022857 16.248163-8.045714 24.346122-12.120817 45.400816-23.980408 81.502041-61.857959 116.871837-98.377142 16.509388-18.12898 34.011429-35.317551 49.371429-54.491429 7.209796-8.933878 13.531429-18.546939 20.009796-28.05551-12.59102-23.980408-26.697143-47.072653-41.952653-69.43347l-9.404082-13.792653z" fill="#999999" p-id="4947"></path></svg>